<?xml version="1.0"?>
<svg xmlns:rdf="http://www.w3.org/1999/02/22-rdf-syntax-ns#" xmlns="http://www.w3.org/2000/svg" xmlns:cc="http://web.resource.org/cc/" xmlns:xlink="http://www.w3.org/1999/xlink" xmlns:dc="http://purl.org/dc/elements/1.1/" xmlns:svg="http://www.w3.org/2000/svg" id="loving_children_xA0_Image_1_" xml:space="preserve" viewBox="0 0 341.679 322.137" version="1.1" x="0px" y="0px" enable-background="new 0 0 341.679 322.137">
<g clip-rule="evenodd" fill-rule="evenodd">
	<path d="m196.74 116.54c0.721 0.498 1.448 0.979 1.619 0 1.313-0.579 1.313 3.818 0 3.239h-1.619v-3.24z"/>
	<path d="m165.97 135.97c1.183 0.707 3.135 0.643 2.429 3.239-2.13 0.24-2.08-1.69-2.43-3.24z"/>
	<path d="m74.486 161.88c-3.071-2.38 2.926-3.2 0 0z"/>
	<path d="m339.24 201.55c-2.035 0.697-4.338 1.061-4.049-2.429-5.866 9.772 4.968 20.62 4.858 32.386-3.361-2.446-4.844-9.7-4.049-13.764-3.593-2.884-4.004-8.95-6.477-12.954-0.35-5.52 8.94-12.93 9.72-3.25z"/>
	<path d="m48.578 268.75c0.117-0.312 1.713-1.432 2.429-0.81 1.599 1.39-3.574 3.86-2.429 0.81z"/>
	<path d="m29.956 305.18c-3.181 2.376 1.981 5.934 4.048 3.238-0.56-2.538-2.16-1.056-4.048-0.81 2.037-3.947 9.656-8.024 12.145-2.429-1.11 1.858-3.334 2.604-4.858 4.048 0.775 1.654 1.654 3.204 2.429 4.858 3.018 0.488 5.121-2.07 7.287 0-3.31 2.506-10.09 5.36-12.954 5.667-0.137-2.835 2.849-2.549 4.048-4.048-0.775-1.654-1.654-3.204-2.429-4.858-2.607-0.178-3.426 1.433-6.477 0.81-1.786-2.362-2.516-3.98-1.619-7.286 1.376-2.401 5.874-1.683 6.477-4.857 2.662 2.72-2.902 4.08-4.049 5.67zm4.858 0c-0.476 3.575 4.372 2.794 3.239-0.81-1.532-0.18-1.787 0.91-3.239 0.81z"/>
	<path d="m2.429 308.42c2.196 1.22-1.288 3.493-1.619 4.858-2.196-1.22 1.288-3.5 1.619-4.86z"/>
	<path d="m38.862 311.66c-0.379-2.521 2.036-2.894 3.238-1.619-0.194 1.42-1.392 1.84-3.238 1.62z"/>
	<path d="m32.385 312.47c2.361-1.19 2.361 3.619 0 2.429v-2.43z"/>
	<path d="m29.146 315.71c3.712 0.54-0.65 4.9 0 0z"/>
	<path d="m42.101 318.14c1.746 4.709-5.13 5.616-4.048 0.81 0.939-0.69 2.17-1.07 4.048-0.81z"/>
	<path d="m176.5 72.818c-3.629 1.224 1.326 2.775 0.81 5.667-8.288 13.757-23.069 33.057-42.911 21.051-1.472 0.957-0.637 4.221-1.62 5.667 3.688 2.76 6.517 6.056 11.335 8.906 4.439 2.625 10.712 3.347 13.764 6.477 1.72 1.764 3.015 6.252 4.048 8.906 1.11 2.851 3.661 5.736 1.619 8.906-3.773-0.004-4.046-3.51-4.858-6.477-1.497 0.122-0.497 2.742-1.619 3.239-5.101-2.186-6.433-8.14-10.525-11.335-4.649-0.208-8.318-1.397-11.335-3.238-1.625 2.029 0.663 5.332 2.429 6.477 7.005 29.158 17.378 54.949 25.908 82.582 0.117 2.545-2.076 2.781-4.048 3.238-0.354 2.783 0.32 4.538 0.81 6.478-2.826 2.571-7.433 3.362-12.145 4.048-2.575 7.95-12.746 8.305-21.05 10.525-3.707 18.785-5.689 38.354 8.096 49.387 2.081 1.665 6.092 1.049 6.477 4.858 9.515 1.28 18.954 2.637 28.337 4.048 3.29-6.261 2.404-16.038-2.429-20.24-0.114 7.271-4.713 14.044-10.525 12.953-0.006-4.153 1.186-5.312 0-8.905-2.094-3.73-11.44-2.908-13.764 0-2.886-3.092 2.507-10.644 7.287-11.335-7.749-3.586-9.087-13.582-14.573-19.431 3.057-1.961 4.817 2.61 7.287 4.048 4.031 2.346 9.398 3.117 12.145 6.477 1.188-2.589 2.317-5.239 2.429-8.905 4.236 3.32 8.356 6.757 8.096 14.573 6.596-2.164 9.758 2.192 16.193 2.429-1.339 4.868-6.743 5.671-12.145 6.477 0.833 5.104 5.814 6.061 4.857 12.954 3.064-1.523 5.286-3.89 10.525-3.238 0.832 1.866 2.787 2.61 2.429 5.668-0.721 0.358-1.447 0.711-1.619 1.619-3.586 0.348-5.127-1.351-5.667-4.049-4.365 1.033-5.544 5.252-7.287 8.906 10.611 4.739 17.737-2.463 23.479-7.287-1.922-8.872-4.358-17.231-4.048-28.337-4.372-1.565-9.825-2.05-15.383-2.429 0.602-7.35-6.804-6.69-11.335-8.905 4.563-28.633 15.019-51.371 34.814-64.771-2.956-5.14-5.817-10.375-6.477-17.812-2.727-2.941-7.451-3.883-11.335-5.667-0.576-3.741-3.28-5.355-5.667-7.287 0.546-3.565-1.829-7.247-3.239-10.525-1.444-3.357-2.455-7.184-4.048-10.525-2.689-5.64-8.039-9.377-8.906-15.383 2.416 0.013 2.752 2.105 4.857 2.429 0.104-4.422-3.342-5.293-3.238-9.715 5.366 0.545 10.429 10.757 12.144 17.812 5.615 5.45 10.597 11.534 14.573 18.622 3.955 0.094 8.532-0.436 11.335 0.81 1.436-0.712-2.081-3.252-1.619-5.667 2.821-1.715 3.84-8.214 0.81-10.525-0.246-2.136 1.69-2.088 3.238-2.429 0.763-3.291-4.699-2.491-2.429-4.857 0.297-3.984 1.403 2.089 3.239 1.619 2.599-7.032-3.541-8.41-5.668-12.954 1.066-2.042 2.658 2.123 4.857 1.619-3.548-1.667-1.179-5.969 0.811-1.619 2.042-1.066-2.123-2.658-1.62-4.858 2.195 0.504 2.016 3.383 4.858 3.239-0.506-1.923-1.089-3.769-3.238-4.048 0.604-3.737 3.201 2.812 5.667 2.429-2.953-3.523-5.442-7.512-8.097-11.334 4.56 0.309 9.002 7.723 13.764 10.525 17.32-9.87 39.97 11.062 28.337 28.337 2.897 3.311 8.542 3.873 10.525 8.097-5.697 0.569-8.05-2.205-11.335-4.048-2.664 1.941 2.946 2.388 1.62 5.667-0.283 0.913-3.994 2.326-1.62 3.238-1.91 1.479-5.109-0.801-8.096 0.81 4.833 5.392 13.723 6.528 17.002 13.763 1.054 2.324 0.347 5.107 1.619 8.097 1.475 2.304 4.448 3.108 6.478 4.857-0.517 3.532-4.147 3.949-6.478 5.668-0.719 11.682-2.785 21.944-12.145 26.718 3.99 12.742 9.666 23.799 11.335 38.862-1.177 1.251-4.145 0.713-6.477 0.81-1.491 1.747-0.873 5.604-2.43 7.286-3.834-0.326-5.571 1.445-9.715 0.81-0.18 7.585-4.505 15.561-5.668 23.479-1.104 7.529 2.324 15.07-1.619 21.05 4.002 1.719 9.066 2.135 13.764 1.62 6.12-0.671 9.799-3.786 12.954-6.478-0.646 4.481-2.252 8.004-6.477 8.906 7.84 0.148 27.021 1.925 40.481 0.81-0.539-5.244-0.98-5.977 0.81-10.525-5.952 2.219-10.834 1.229-16.192-0.81 5.876-2.76 8.809-8.463 17.812-8.097-3.531-5.707-10.682-6.511-15.383-10.524-5.365-4.581-7.605-10.97-12.954-15.384-0.032 5.699 1.644 9.691 3.238 13.764 2.614-0.58 8.695 1.803 5.667 6.478-5.502 0.104-6.674-4.12-8.096-8.097-2.282 3.661 2.178 7.516 1.619 12.145-2.389 1.098-5.013 1.014-6.478-0.81 0.202-3.847 2.481-5.615 3.239-8.905-2.583-0.528-4.67 10.229-11.335 5.667-0.585-2.474 0.828-2.95 0.81-4.857 1.355-1.431 2.713 0.719 5.667 0 4.959-3.138 2.745-13.448 3.239-21.051-3.846 0.473-2.933 5.704-6.478 6.478-3.734 0.39-6.129-3.604-4.048-6.478 2.139 0.021 5.073-0.755 4.048 2.429 7.133-1.404 2.612-14.096 4.048-23.479 1.158-7.565 4.755-11.387 8.097-15.384-0.354-0.996-1.036-1.662-2.429-1.619 5.406 0.607 8.072-5.068 12.145-8.096-7.227 1.936-14.821 7.793-20.241 0.81 0.59-1.84-1.458-6.316 1.619-5.668 3.078-0.648 1.03 3.828 1.619 5.668 5.976 2.005 12.479-1.224 16.193-4.049 12.291-0.878 28.552-3.883 38.052 1.62 0.322-2.658-2.264-1.381-4.048-2.43-2.451-1.439-3.39-2.5-5.667-3.238-11.035-3.576-25.729-13.519-21.051-31.575 4.311-6.535 17.184-8.656 15.383-18.622-2.494-0.605-0.986 2.792-4.048 1.619-0.719-1.44-2.26-2.058-1.619-4.858 0.938-1.497 7.442 2.149 4.857-2.429 8.13 5.919 0.997 14.567-4.048 18.621 4.027 0.929 8.311-0.739 12.145 1.619 3.649-0.128 3.258-4.298 6.477-4.857 0.987 4.796-2.988 7.932-6.477 5.668 0.189 3.049 3.049 3.428 3.238 6.477-0.49 5.178-3.571 7.764-9.716 7.287-1.914-2.088-2.317-6.323 0.81-7.287 2.592 0.107 3.562 1.836 3.239 4.857 8.449-5.123-0.835-13.242-8.906-12.145-2.77 0.377-3.384 2.47-6.477 2.43-1.733 1.536-2.341 9.664-3.239 14.573 1.44 1.512 2.058-0.658 4.858 0-0.466 1.423 0.979 4.757-0.81 4.857 5.531 6.613 12.783 11.505 22.669 13.764 6.398 6.286 15.049 10.32 18.622 19.432 5.022 4.169 6.411 8.244 8.096 14.573 1.846-1.112 3.044 2.087 3.239 0 7.851 26.548-3.923 53.256-25.099 63.96 1.982 4.765 6.762 6.731 12.145 8.097-4.971 6.45-17.509 0.699-22.67-2.429-14.774 7.604-44.436 5.622-60.723 0.81 1.637 4.571 7.213 5.202 5.668 12.954-3.533 2.152-8.94 2.228-8.097-4.049 0.957-0.932 2.862-0.916 4.858-0.81-2.143-7.599-12.568-8.973-20.241-9.715-16.491-1.595-35.696-2.067-51.816-4.858-2.977 0.532-4.032 2.985-5.667 4.858 13.093-4.179 21.404 9.633 12.145 15.383-2.35-0.62-4.657-1.28-5.667-3.238-0.036-2.465 1.709-3.148 2.429-4.858 2.476-0.587 2.381 1.397 4.857 0.81-4.262-13.024-25.453 0.104-37.243 0-1.755 1.548 2.843 3.588 2.429 6.478-10.638-8.618-28.197-6.097-46.149-12.954-13.55-5.176-24.016-10.183-44.53-8.906 3.401 1.997 7.701 3.094 10.525 5.668-2.929 0.354-5.503-2.683-8.906-3.239-4.558-0.744-10.966 0.167-15.383 0.81-13.951 2.031-20.678 11.078-29.956 17.003-1.768 3.349-8.705 8.375-12.145 4.857 1.208-2.301 4.089-2.928 7.287-3.238 3.515-8.09 13.926-9.283 13.764-21.051 16.405-1.407 30.032-5.592 33.195-20.24 2.682 4.327-1.875 8.36-2.429 12.145 8.646-4.415 28.48-15.327 24.289-30.767-1.343-4.945-12.813-10.914-17.002-2.429 0.506 1.923 4.983-0.126 5.667 1.619 0.526 2.955-0.545 4.312-1.619 5.668-6.558 0.62-8.827-3.048-8.096-9.716 6.927-9.004 25.891-4.735 24.289 8.906 1.131 0.813 5.123-2.398 8.096-2.43 0.719 1.44 2.26 2.059 1.619 4.858-2.325 2.229-4.298-0.46-6.477-0.81-5.87 8.434-9.891 18.716-20.241 22.669 10.246-1.052 21.163-1.767 33.195 0 4.15-14.451-4.737-28.518-0.81-44.529-3.312-2.625-9.407-2.468-11.335-6.477-5.783 0.812-11.835 0.216-16.192-2.429 1.115-1.044 0.801-3.518 0.81-5.668-0.468-1.961-3.057-1.801-4.858-2.429-2.296-2.562-2.823-6.892-8.096-6.478 0.198-8.999 7.143-13.655 5.667-21.859 2.711-3.496 2.797-9.617 7.287-11.335 2.104-5.686 2.517-12.594 5.667-20.241 0.102-0.246 2.214-1.115 2.429-1.619 1.497-3.52 2.3-8.416 4.048-12.954 1.459-3.79 3.202-7.487 4.857-11.335 3.726-8.66 10.082-18.3 10.525-22.669 1.011-9.965-7.712-16.112-10.525-25.908-1.634 5.112-0.013 13.48-4.048 16.192-1.442-0.593-0.117-1.472 0-2.429-2.049-1.731-3.513 4.008-5.667 4.858v-2.429c-1.099 0.25-0.672 2.027-0.81 3.239-2.558-1.116-4.886 2.004-5.667 0-1.259-2.878 2.75-0.489 2.429-2.429-0.162-2.806-0.674-5.263-4.048-4.857 2.276-3.661 1.893-9.982 3.238-14.573-0.745-2.207-2.531 1.131-4.857 0 0.119-1.77 2.04-1.739 4.048-1.62 2.89-13.377 1.314-18.669-4.858-28.337 1.183 1.158 3.135 1.19 2.429-1.619-0.241-2.859-1.622 3.426-2.429 0-0.775-2.934 3.495-0.823 4.048-2.429 0.875-4.824 10.265-7.328 10.525-15.383-4.467-2.28-9.818-3.676-12.954-7.287 2.673-4.613 11.4-3.173 14.573-7.287-1.645-3.15-1.427-6.316 0-9.715 2.151 0.008 4.624-0.306 5.667 0.81 1.603-4.334 4.894-6.98 6.477-11.335 10.402-2.202 20.576-4.063 22.669 8.906 3.468 0.5 3.301-2.636 6.477-2.429 1.333 1.365 1.759 3.639 3.239 4.858-8.137 8.071 8.355 9.589 17.002 10.525-1.794 2.055-5.292 3.689-8.096 4.858-3.133 1.306-6.729 1.797-9.716 3.239-1.058 1.91-0.342 5.595-1.619 7.287 1.846 0.226 3.043-0.195 3.239-1.62 2.445 1.722-2.319 3.015-2.429 4.858 1.222 1.477 0.859 4.539 2.429 5.667-4.539 2.585-7.377 5.038-5.667 12.145-2.886 1.433-7.375 1.261-10.525 2.429 3.204 4.893 12.708 3.485 15.383 8.906 5.264 0.673 7.843 4.031 10.525 7.287 1.907 0.019 2.384-1.395 4.858-0.81-1.587 3.424 4.232 5.757 6.477 9.716 7.968-4.446 13.539-11.29 23.479-13.764 0.227-1.846-0.195-3.043-1.619-3.239 5.772-3.404 5.405-12.946 13.764-13.764 2.275-3.757 1.557-12.562-3.238-15.383-3.108-0.41-0.535 4.862-3.238 4.858-2.557-0.413-2.24-3.697-3.239-5.667 2.491-5.748 12.258-6.203 9.716-14.573 2.544-1.252 4.517-0.518 6.477 0.81-4.096 7.506 5.293 10.725 8.906 15.383-1.76 3.537-5.295 4.435-6.477 0-3.897 2.58-4.849 8.105-5.668 13.764 1.693 2.895 5.81 3.366 8.097 5.667 0.026 2.456-2.841 2.017-4.858 2.429-5.902 4.029-4.714 11.378-4.048 19.431-7.88 0.366-0.295-7.082-3.238-10.525-2.231-1.993-2.342 3.042-4.048 4.048-2.24 0.328 0.65-4.449-1.6-4.084zm-100.4 11.334c1.784 0.342 4.466-2.425 2.429-3.238 0.24 2.129-3.141 0.637-2.429 3.238zm8.906 2.43c0.221-1.103-0.501-3.161-0.81-1.619-0.22 1.101 0.502 3.16 0.81 1.619zm-7.287 12.144c0.774 1.508-2.425 2.706 0 3.238-0.231-1.428 3.812-2.507 1.62-3.238-0.172 0.982-0.899 0.502-1.62 0.004zm-5.667 7.284c2.489-0.479 1.941-3.997 3.238-5.667-2.876 0.1-3.257 2.68-3.238 5.67zm159.49 80.97c2.167 0.802 1.004 4.933 4.048 4.858 1.043-2.493 1.573-9.726 0.81-11.335-1.03 2.75-4.49 3.06-4.86 6.48zm33.2 68c7.046 7.797 15.604 14.082 28.337 16.192 3.764-3.792 7.568-7.545 9.716-12.953 0.826 4.187 1.485 4.072 0.81 8.905 5.359-1.388 7.788-5.706 10.525-9.716-2.715 0.556-2.96-1.357-3.239-3.238-0.104-4.451 8.417-5.882 8.906-0.81-3.534 5.911-7.698 11.193-12.954 15.383 8.577-0.059 10.571-6.7 16.192-9.715-0.364 2.254 4.413-0.635 4.049 1.619 3.587 8.309-11.899 4.194-14.573 8.905 3.771 2.437 13.1-0.686 11.334 7.287-1.343 1.355-4.753 0.645-7.286 0.81-1.692-2.544 0.736-4.517-0.81-6.478-4.413-0.364-6.653 1.444-11.335 0.811-1.204 2.304-1.474 5.543-3.238 7.286 9.784-3.402 11.429 6.289 20.24 3.238-1.336 4.712-6.182 8.941-12.145 6.478 0.454 3.324 3.207 4.35 4.858 6.477 10.734-8.659 32.522-31.313 17.002-46.148 0.579 1.312-3.817 1.312-3.238 0 3.534 1.105 1.723-3.135 4.857-2.429 2.38 0.858 3.396 3.08 4.857 4.857 0.077-5.516 2.22-5.295 2.43-11.335-3.548-0.59 0.652 1.609-1.62 1.619-1.209-5.008-8.346-8.371-8.905-11.334 2.555-0.396 2.858 1.459 5.667 0.81-7.489-13.361-21.562-31.58-42.91-29.147-6.72 0.767-9.892 4.717-15.383 8.097 0.72-1.71 2.465-2.393 2.429-4.857-4.007 2.2-8.174 4.24-9.716 8.905 6.238-1.243 15.393-1.662 18.622 2.43-0.336-6.813 3.753-9.201 6.477-12.954 1.333 5.953 6.159 8.414 6.478 15.383 6.924-2.227 12.682 2.695 18.621 4.048-7.775 0.321-10.581 5.611-18.621 5.667 2.057 3.341 2.503 8.292 4.048 12.145 0.858-6.631 12.447-11.549 14.573-3.238-0.997 2.679-5.03 6.617-7.286 3.238-1.714-1.701 0.952-3.156 1.619-4.857-11.688 5.315-11.025 22.979-25.908 25.099 0.949 1.209 3.364 0.953 3.238 3.238-8.27-3.34-22.22-5.3-26.72-9.72zm17.81 3.24c9.58 0.674 13.104-4.709 15.383-11.335 0.092 0.987 0.242 1.917 1.62 1.619 2.615-4.634 3.152-12.48 0-17.002 0.428 8.794-5.554 11.179-8.906 16.192-1.568-2.974-3.172-9.475-1.619-12.954-8.372 1.343-13.832 5.599-20.241 8.905 4.347-6.179 5.409-15.641 12.954-18.621-6.501-1.056-8.787-6.326-14.573-8.096-9.709 11.712-8.274 34.673 5.668 38.861 7.883 2.369 10.681-2.975 13.764-4.857-1.13 2.66-2.34 5.23-4.04 7.3zm-72.06-2.43c-1.652 10.707-6.049 21.339-3.238 34.005-0.112 2.856-2.317 3.62-2.429 6.477 5.411-3.009 12.178-5.67 13.764-12.145 2.107-8.607-4.007-19.446-3.239-29.146-1.035-0.044-1.121-1.037-2.429-0.81-0.2 1.13-1.76 0.92-2.42 1.61zm-105.25 29.96c2.873-2.02 7.736 0.566 9.716-0.811-1.754-4.366-0.215-10.494 1.619-13.764-2.971-3.775-1.478-12.016-5.667-14.573-0.92 10.27-6.79 19.48-5.67 29.14zm186.22-7.29v-4.048c-8.317-2.482-17.408-8.495-22.67-11.335 6.8 5.88 12.64 12.73 22.67 15.38zm-163.55 8.1c-2.37 0.211-2.488-1.831-4.858-1.62-0.91 3.29 5.04 3.85 4.86 1.62zm-32.384 0.81c-9.818 0.171-28.025-1.041-37.243 2.429 9.98 0.615 25.202 1.35 34.004 5.667-1.246-5.03 2.668-4.89 3.239-8.1zm68.004 13.76c2.032-1.477 3.342-3.676 4.858-5.668-19.873-2.797-41.377-3.961-60.722-7.286 3.465 8.14 13.748 9.461 17.812 17.002 11.62 2.695 19.091-2.812 26.717-6.477-0.309 3.227-5.992 5.305-4.857 7.286 6.52-1.576 12.984-3.208 15.383-8.906 2.07 1.05-0.75 3.98 0.81 4.06zm130.36 0.81c3.396 0.428 4.523-1.415 7.287-1.619-0.71-2.799-1.702-5.315-4.049-6.478 0.61 4.4-2.35 5.22-3.24 8.1zm-75.3-3.24c1.845 0.226 3.043-0.195 3.238-1.62-1.44 0.19-4.06-0.81-3.24 1.62zm-110.92 2.43c-1.978-0.451-1.725-3.133-4.858-2.429-0.57 2.53 4.22 3.8 4.86 2.43z"/>
</g>
<metadata><rdf:RDF><cc:Work><dc:format>image/svg+xml</dc:format><dc:type rdf:resource="http://purl.org/dc/dcmitype/StillImage"/><cc:license rdf:resource="http://creativecommons.org/licenses/publicdomain/"/><dc:publisher><cc:Agent rdf:about="http://openclipart.org/"><dc:title>Openclipart</dc:title></cc:Agent></dc:publisher><dc:title>loving children</dc:title><dc:date>2007-09-13T03:32:14</dc:date><dc:description>from "Ethel's Keepsake" circa 1888 - archive.org</dc:description><dc:source>http://openclipart.org/detail/5394/loving-children-by-johnny_automatic</dc:source><dc:creator><cc:Agent><dc:title>johnny_automatic</dc:title></cc:Agent></dc:creator><dc:subject><rdf:Bag><rdf:li>child</rdf:li><rdf:li>clip art</rdf:li><rdf:li>clipart</rdf:li><rdf:li>externalsource</rdf:li><rdf:li>girls</rdf:li><rdf:li>image</rdf:li><rdf:li>media</rdf:li><rdf:li>people</rdf:li><rdf:li>png</rdf:li><rdf:li>public domain</rdf:li><rdf:li>silhouette</rdf:li><rdf:li>svg</rdf:li></rdf:Bag></dc:subject></cc:Work><cc:License rdf:about="http://creativecommons.org/licenses/publicdomain/"><cc:permits rdf:resource="http://creativecommons.org/ns#Reproduction"/><cc:permits rdf:resource="http://creativecommons.org/ns#Distribution"/><cc:permits rdf:resource="http://creativecommons.org/ns#DerivativeWorks"/></cc:License></rdf:RDF></metadata></svg>
