<?xml version="1.0" encoding="UTF-8" standalone="no"?>
<!-- Created with Inkscape (http://www.inkscape.org/) -->

<svg
   xmlns:dc="http://purl.org/dc/elements/1.1/"
   xmlns:cc="http://creativecommons.org/ns#"
   xmlns:rdf="http://www.w3.org/1999/02/22-rdf-syntax-ns#"
   xmlns:svg="http://www.w3.org/2000/svg"
   xmlns="http://www.w3.org/2000/svg"
   xmlns:sodipodi="http://sodipodi.sourceforge.net/DTD/sodipodi-0.dtd"
   xmlns:inkscape="http://www.inkscape.org/namespaces/inkscape"
   width="36.222393mm"
   height="46.805298mm"
   viewBox="0 0 128.34706 165.84554"
   id="svg8760"
   version="1.1"
   inkscape:version="0.91 r13725"
   sodipodi:docname="happy retro woman.svg">
  <defs
     id="defs8762" />
  <sodipodi:namedview
     id="base"
     pagecolor="#ffffff"
     bordercolor="#666666"
     borderopacity="1.0"
     inkscape:pageopacity="0.0"
     inkscape:pageshadow="2"
     inkscape:zoom="2.0802294"
     inkscape:cx="189.26402"
     inkscape:cy="110.95968"
     inkscape:document-units="px"
     inkscape:current-layer="layer1"
     showgrid="false"
     fit-margin-top="0"
     fit-margin-left="0"
     fit-margin-right="0"
     fit-margin-bottom="0"
     inkscape:window-width="1366"
     inkscape:window-height="705"
     inkscape:window-x="-8"
     inkscape:window-y="-8"
     inkscape:window-maximized="1" />
  <metadata
     id="metadata8765">
    <rdf:RDF>
      <cc:Work
         rdf:about="">
        <dc:format>image/svg+xml</dc:format>
        <dc:type
           rdf:resource="http://purl.org/dc/dcmitype/StillImage" />
        <dc:title></dc:title>
      </cc:Work>
    </rdf:RDF>
  </metadata>
  <g
     inkscape:label="Layer 1"
     inkscape:groupmode="layer"
     id="layer1"
     transform="translate(25.643974,-449.1589)">
    <path
       style="fill:#000000"
       d="m 60.636719,449.16016 c -7.4687,0.005 -15.60625,0.0245 -24.0625,0.0625 l -61.5,0.27734 -0.210938,26.5 c -0.1161,14.575 -0.331315,27.4 -0.478515,28.5 -0.2154,1.6086 0.823462,25.83642 1.664062,38.79102 0.0996,1.5359 0.982538,3.5609 1.960938,4.5 1.6869,1.619 1.743215,1.59238 1.103515,-0.54102 -0.4047,-1.3495 -0.247522,-2.25 0.392578,-2.25 0.5871,0 1.06836,0.675 1.06836,1.5 0,0.825 0.45,1.5 1,1.5 0.55,0 1,-0.66572 1,-1.47852 0,-0.8128 1.217531,-3.9628 2.707031,-7 2.4666,-5.0293 3.0022,-5.52148 6,-5.52148 2.2593,0 3.2929688,-0.4705 3.2929688,-1.5 0,-0.8334 0.8888999,-1.5 2,-1.5 2.66669999,0 2.52850312,-2.27638 -0.3417969,-5.61328 -1.54,-1.7903 -2.9103,-2.50404 -4,-2.08594 -2.3264999,0.8928 -2.0618719,2.36027 0.5488281,3.04297 2.9778,0.7787 1.6437437,1.87141 -2.5976562,2.12891 -3.9596998,0.2404 -5.3473558,-2.12884 -3.0351558,-5.17774 2.032099,-2.6795 1.713381,-3.58368 -1.074219,-3.05078 -1.585,0.303 -2.5,0.0207 -2.5,-0.76953 0,-1.8006 4.619478,-4.55792 6.4550779,-3.85352 1.1369,0.4362 2.0620093,-0.58452 3.4121093,-3.76171 1.4511001,-3.4156 1.7846563,-6.30751 1.5351563,-13.34961 -0.239,-6.7434 0.056707,-9.56246 1.1855469,-11.28516 2.94430001,-4.4936 7.4743812,-7.97414 11.1757812,-8.58594 5.5166004,-0.9119 11.7022564,-0.77013 12.7851564,0.29297 1.1046,1.0845 3.405569,-0.49138 5.042969,-3.45508 2.5921,-4.6917 8.864003,-5.64021 25.908203,-3.91601 8.003,0.8096 12.731534,2.87322 17.302734,7.54883 3.1869,3.25959 4.315266,8.08162 2.197266,9.39062 -1.5893,0.9823 -1.177591,2.06567 1.287109,3.38477 2.1902,1.1722 5.002204,6.33575 6.808594,12.50585 1.1879,4.05771 -0.009,5.33715 -2.332031,2.49415 -1.4071,-1.7213 -1.788941,-1.88429 -1.369141,-0.58399 0.32,0.9913 -0.144903,2.91178 -1.033203,4.26758 -1.2649,1.9306 -1.912681,2.21887 -2.988281,1.32617 -0.7555,-0.627 -1.373047,-2.17796 -1.373047,-3.44726 0,-1.9741 -0.47,-2.28311 -3.25,-2.12891 -2.712,0.1505 -3.503657,-0.32753 -4.785157,-2.89063 -0.859299,-1.7187 -2.117268,-2.87686 -2.855468,-2.63085 -0.9612,0.3204 -1.12441,-0.17648 -0.59961,-1.83008 0.5809,-1.8303 0.408169,-2.15029 -0.894531,-1.65039 -0.8884,0.3409 -1.615234,0.21435 -1.615234,-0.28125 0,-0.4957 -0.960113,-1.20593 -2.132813,-1.57813 -1.52661,-0.4845 -1.773414,-0.89739 -0.871094,-1.45508 0.693101,-0.42832 0.946,-1.2878 0.5625,-1.9082 -0.3834,-0.6208 -1.116906,-0.86923 -1.628906,-0.55273 -0.512,0.3164 -0.937265,-0.23753 -0.947265,-1.23243 -0.0273,-2.86 -5.615707,-6.24359 -8.816407,-5.33789 -1.4669,0.4151 -2.542415,1.30251 -2.390625,1.97071 0.1593,0.7008 -0.4754,1.04987 -1.5,0.82617 -0.9768,-0.2132 -1.674181,-0.8877 -1.550781,-1.5 0.2599,-1.2903 -5.111841,-0.0226 -7.18164,1.69531 -0.694701,0.5765 -3.192229,1.23394 -5.548829,1.46094 -2.3566,0.227 -5.51719,1.3263 -7.02539,2.4414 -2.9332,2.1685 -3.96875,1.8981 -3.96875,-1.0332 0,-2.371 -1.507453,-2.32033 -5.0019534,0.16797 -6.0037,4.275 -0.003,7.76917 10.8144534,6.29688 4.1025,-0.55841 12.1695,0.71235 18.6875,2.94335 3.6483,1.2487 9.5,7.29175 9.5,9.81055 0,2.3908 -1.737328,3.41142 -3.423828,2.01172 -1.0906,-0.9051 -1.244044,-0.30248 -0.839844,3.2832 0.3006,2.66693 0.0571,4.66218 -0.619141,5.08008 -1.0867,0.6716 4.394869,6.57422 6.105469,6.57422 0.4274,0 0.777344,1.125 0.777344,2.5 0,1.375 -0.354,2.5 -0.78711,2.5 -1.1716,0 -1.273706,8.01931 -0.128906,10.1582 1.0827,2.02271 5.905053,1.98658 9.751953,-0.0723 10.1235,-5.4179 11.09315,10.00289 1.21875,19.38476 -4.3998,4.18041 -6.072778,10.86946 -6.205078,24.81446 -0.1194,12.5892 -0.742709,14.17618 -5.849609,14.87304 -1.9444,0.26531 -2.476485,0.89535 -2.396485,2.83985 0.11327,2.74042 1.171629,5.80793 2.673828,7.75 1.41291,1.82577 1.737703,1.65908 5.820313,-2.98828 3.6668,-4.174 3.752691,-4.20931 5.775391,-2.37891 2.253,2.039 5.126953,1.56028 5.126953,-0.85352 0,-0.8811 0.9554,-1.58801 2.25,-1.66601 2.154,-0.1304 2.160872,-0.15514 0.138672,-0.55274 -1.1617,-0.2284 -3.334325,-1.6907 -4.828125,-3.25 -2.4237,-2.5298 -2.613807,-3.20982 -1.753907,-6.32421 0.5548,-2.0079 0.5944,-4.07309 0.09375,-4.86329 -1.1995,-1.8936 -1.121112,-4.12868 0.117188,-3.36328 0.559,0.3454 0.712044,1.1591 0.339844,1.8086 -0.3892,0.6793 -0.291179,0.82695 0.232421,0.34765 0.500701,-0.4584 0.948141,-1.5834 0.994141,-2.5 0.1537,-3.0568 2.296685,-7.03245 4.396485,-8.15625 1.1417,-0.611 1.805909,-1.54984 1.474609,-2.08593 -0.3313,-0.536 -0.232697,-0.89202 0.220703,-0.79102 1.5613,0.3476 4.324219,-1.351 4.324219,-2.6582 0,-0.7203 0.411109,-1.45918 0.912109,-1.64258 0.5009,-0.1833 1.044031,-2.13399 1.207031,-4.33399 0.163,-2.2 1.370494,-5.6606 2.683594,-7.6914 1.3131,-2.0307 2.065728,-4.21151 1.673828,-4.84571 -0.392,-0.6342 -0.117625,-2.26474 0.609375,-3.62304 0.9445,-1.7649 1.006197,-2.6648 0.216797,-3.1543 -0.6075,-0.3768 -1.075015,-3.04805 -1.041015,-5.93555 0.0481,-4.0306 0.420662,-5.25 1.601562,-5.25 1.1649,0 1.255706,-0.27945 0.378906,-1.15625 -0.8723,-0.8736 -1.497915,-0.87533 -2.541015,-0.01 -2.0731,1.7205 -2.951966,0.10044 -1.072266,-1.97656 1.1909,-1.316 1.441128,-2.68948 0.923828,-5.08008 -1.7627,-8.1475 -1.715322,-12.93691 0.142578,-14.34571 2.5343,-1.9216 2.912275,-1.79726 4.234375,1.39454 0.8619,2.0808 0.895907,4.5228 0.128906,9.25 -0.573199,3.5327 -1.017328,7.32382 -0.986328,8.42382 0.0477,1.7082 0.199069,1.63824 1.042969,-0.47656 2.4228,-6.0718 3.827075,4.85096 1.796875,13.97656 -0.5506,2.475 -1.250087,7.65 -1.554687,11.5 -0.3046,3.85 -0.922047,7.45161 -1.373047,8.00391 -0.4509,0.5523 -1.032116,4.97006 -1.291016,9.81836 l -0.470703,8.81445 3.763672,-0.63476 c 3.25,-0.549 4.039903,-0.28466 5.783203,1.93164 1.1105,1.4117 2.5167,2.5664 3.125,2.5664 1.3791,0 1.449269,1.6695 0.105469,2.5 -0.55,0.3399 -0.946813,1.3786 -0.882813,2.3086 0.1087,1.5876 0.1441,1.5874 0.5625,0 0.2594,-0.9844 1.047813,-1.46298 1.882813,-1.14258 0.8823,0.3386 1.4375,-0.0702 1.4375,-1.05664 0,-0.8839 0.265544,-1.60547 0.589843,-1.60547 1.092201,0 4.236401,4.48809 3.5,4.99609 -0.402,0.2766 -0.405535,1.62891 -0.0098,3.00391 l 0.720703,2.5 0.115234,-2.5 c 0.0806,-1.7543 0.364622,-2.10603 0.953131,-1.17773 1.45229,2.2906 2.02532,-20.03191 2.14453,-83.53711 l 0.11523,-61.21485 -2.31445,-0.5625 c -0.954686,-0.2319 -17.345846,-0.36127 -39.751956,-0.34765 z M 56.9375,484.41992 c -0.97181,0.033 -1.958233,0.2098 -2.851562,0.55469 l -2.988282,1.1543 2.488282,1.91211 c 2.9853,2.2936 2.090365,2.16449 5.884765,0.84179 1.7571,-0.6125 3.023806,-1.625 2.816406,-2.25 -0.4155,-1.25181 -2.275158,-2.06427 -4.386718,-2.19922 -0.31673,-0.0203 -0.638951,-0.0247 -0.962891,-0.0137 z m 8.072266,9.6211 c -0.0347,-0.0137 -0.0971,0.0504 -0.183594,0.20507 -0.23074,0.4125 -1.056738,0.75 -1.835938,0.75 -0.7792,0 -1.416015,0.70521 -1.416015,1.56641 0,2.4687 1.929256,5.43359 3.535156,5.43359 0.8057,0 1.464844,0.43751 1.464844,0.97071 0,1.5288 6.842472,0.88307 7.451172,-0.70313 0.9095,-2.3703 -1.33151,-5.43996 -3.47461,-4.75976 -2.3301,0.7395 -6.012615,-1.08149 -5.603515,-2.77149 0.10269,-0.42443 0.12026,-0.66853 0.0625,-0.6914 z m -3.445313,14.10937 c 0.7356,-0.0254 0.983508,1.26616 1.367188,4.44922 0.4254,3.5298 0.06139,4.54812 -2.771485,7.73242 -3.9686,4.4607 -5.383622,4.64822 -4.794922,0.63672 0.3565,-2.4326 0.817272,-2.91054 2.326172,-2.43164 1.0824,0.3435 1.882813,0.1185 1.882813,-0.5293 0,-0.6195 -0.45,-0.84976 -1,-0.50976 -1.9816,1.2247 -1.056441,-6.13946 1.005859,-8.00586 0.92633,-0.83835 1.543005,-1.32657 1.984375,-1.3418 z M 14.367188,520 c -1.60245,0.002 -3.136298,0.19504 -4.210938,0.60742 -0.8699999,0.3338 -1.5820313,1.29191 -1.5820312,2.12891 0,1.2657 0.8836001,1.39382 5.2500002,0.76172 2.8875,-0.418 6.15,-0.7275 7.25,-0.6875 1.9725,0.0721 1.972994,0.0529 0.05859,-1.36914 C 19.89769,520.52391 17.037924,519.99724 14.367188,520 Z m 0.507812,7.01367 c -2.19355,0.047 -3.873109,0.98945 -4.130859,2.8086 -0.181,1.2775 -0.0633,3.01638 0.261718,3.86328 0.4664,1.2156 0.893791,1.28881 2.025391,0.34961 0.8027,-0.6662 3.647244,-1.07138 6.464844,-0.92188 2.7672,0.1469 5.279231,0.0177 5.582031,-0.28516 0.3028,-0.3028 -1.041981,-1.76354 -2.988281,-3.24804 -2.31285,-1.7641 -5.021294,-2.61339 -7.214844,-2.56641 z M 81.574219,537 c -0.55,0 -1,0.9 -1,2 0,1.1 0.45,2 1,2 0.55,0 1,-0.9 1,-2 0,-1.1 -0.45,-2 -1,-2 z m -81.92773462,7.41602 c -0.55357001,-0.0122 -1.04128568,0.0629 -1.35351558,0.25586 -0.5141001,0.31769 -0.3236719,0.96379 0.4238281,1.4375 l 0,-0.004 c 1.77830002,1.1299 4.8574219,1.13383 4.8574219,0.01 0,-0.83498 -2.2670245,-1.66273 -3.92773442,-1.69921 z m -6.41601558,0.38476 -1.4707032,3.6875 c -1.2265,3.075 -1.8664626,3.61388 -3.8515626,3.23438 -1.3097,-0.2504 -2.602647,-0.0978 -2.873047,0.33984 -0.2705,0.4376 0.227222,4.98903 1.107422,10.11523 0.8802,5.1261 1.715069,10.56494 1.855469,12.08594 0.3708,4.0142 4.174378,7.50704 10.267578,9.42774 4.9809,1.5701 5.4976994,2.04238 7.8496094,7.17968 1.3849,3.025 2.9633594,8.62988 3.5058594,12.45508 0.5426002,3.8252 1.2652222,8.0701 1.6074222,9.4336 0.6083,2.4237 0.796265,2.47055 8.384765,2.03125 5.3015,-0.3069 8.268638,-0.95613 9.361328,-2.04883 1.79941,-1.7994 2.11071,-3.74414 0.59961,-3.74414 -0.55,0 -1,0.45 -1,1 0,2.8435 -7.828632,-1.69433 -10.269531,-5.95313 -3.069201,-5.3553 -2.924629,-7.44874 0.763671,-11.11914 1.8937,-1.8845 3.45761,-3.73643 3.47461,-4.11523 0.0174,-0.3788 -2.10625,-0.97909 -4.71875,-1.33399 -6.8884,-0.9359 -8.2061033,-1.42767 -7.658203,-2.85547 0.3088,-0.8048 -1.0884098,-1.7969 -3.7871098,-2.6875 -2.3521999,-0.7763 -5.75453678,-2.70932 -7.5605468,-4.29492 -2.6036,-2.2861 -3.9005719,-2.75775 -6.2636719,-2.28515 -2.7782005,0.5557 -2.9804685,0.39049 -2.9804685,-2.41211 0,-3.6774 1.966806,-4.60415 5.753906,-2.71485 3.5912,1.7915 5.24609375,1.2388 5.24609375,-1.75 0,-2.0259 0.63071875,-2.44925 4.51171875,-3.03125 2.4818,-0.3721 4.7759564,-1.10264 5.0976565,-1.62304 0.3216,-0.5205 1.65765,-1.35502 2.96875,-1.85352 3.7206,-1.4146 2.016125,-3.30783 -5.6718752,-6.29883 -5.1533,-2.0046 -7.95765626,-2.56555 -10.4726563,-2.09375 -4.1355,0.7758 -4.5524,-0.74681 -0.6875,-2.50781 l 2.74414062,-1.25 -2.91601562,-2.50977 z m 8.8515624,13.08399 c 3.0597,0.004 6.1197126,0.34236 6.7890626,1.01171 0.5327,0.5327 0.6979875,1.67326 0.3671874,2.53516 -0.3307999,0.862 -0.9530125,1.51227 -1.3828124,1.44531 -0.4298001,-0.0671 -3.4370407,-0.50902 -6.6816407,-0.98242 -6.5572,-0.9568 -7.4701062,-1.42639 -5.8789062,-3.01758 0.66755,-0.6677 3.72740939,-0.99627 6.7871093,-0.99218 z m -13.7050782,2.1582 c 0.74582,0.0716 2.1571408,2.00747 2.1816408,3.20508 0.008,0.4125 -0.3857531,0.75 -0.8769528,0.75 -1.1091,0 -2.363972,-3.07558 -1.576172,-3.86328 0.0734,-0.0735 0.164934,-0.10203 0.271484,-0.0918 z"
       id="path8719"
       inkscape:connector-curvature="0"
       sodipodi:nodetypes="cccsccccsssscsssscsssssccccccssccscccscscscscscccccsccccscssccscccssscssssccscscsccccccccccscscccccscccccssccsscscccsccccsscccccsccccsccsccssscssscccccccccscscccsscccssscccsssscssccccscccccscsscssssscsccccccscsccscscccccscscccscscsccc" />
  </g>
</svg>
