<?xml version="1.0" encoding="utf-8"?>

<!DOCTYPE svg PUBLIC "-//W3C//DTD SVG 1.1//EN" "http://www.w3.org/Graphics/SVG/1.1/DTD/svg11.dtd">
<svg version="1.1" id="Layer_1" xmlns="http://www.w3.org/2000/svg" xmlns:xlink="http://www.w3.org/1999/xlink" x="0px" y="0px"
	 viewBox="0 0 1828.0673 1941.4877" enable-background="new 0 0 1828.0673 1941.4877" xml:space="preserve">
<path d="M1777.317,721.7567c-6.5491-8.593-15.6792-14.1387-24.5151-19.9358c-3.6909-2.4216-7.707-4.2947-10.5337-7.8718
	c-0.5232-0.6619-1.3721-1.176-0.7783-2.0112c0.2627-0.3695,1.2161-0.1876,1.8081-0.3936c3.2139-1.1189,5.3281,2.4663,8.239,2.0085
	c3.9595-0.6227,7.7693,1.0598,10.4734,2.7495c4.7051,2.9402,8.8259,0.9055,11.1045-1.3984
	c2.6392-2.6687,3.1357-7.5278,0.6672-11.5758c-5.1326-8.4171-13.2742-12.6842-22.1768-15.6298
	c-4.2051-1.3914-8.4812-3.1508-12.2268-4.9893c-3.9897-1.9581-8.2832-4.3164-12.0183-7.1846
	c-6.7971-5.2194-16.3865-5.177-22.4275-11.9762c-3.4888-3.9269-8.5552-5.5616-13.3262-6.8468
	c-6.9187-1.8633-11.8718-7.1559-18.5889-9.4056c-3.3372-1.1176-5.2373-5.0502-5.231-9.1534
	c0.0039-2.5482,1.5347-3.8003,3.656-4.5044c11.1184-3.6912,16.7214-14.9771,16.3376-25.0736
	c-0.1436-3.7738-1.0737-8.3899-6.0537-8.8373c-8.6455-0.777-16.6201,1.6882-23.8052,6.5647
	c-2.4753,1.6802-4.7845,3.5032-8.0537,3.5063c-6.7119,0.0063-12.2972,3.6721-17.7092,6.7734
	c-5.2056,2.9828-10.0587,6.7422-15.1907,10.0012c-12.2764,7.7964-25.8418,10.6764-40.1018,11.0083
	c-5.4794,0.1276-11.194,0.7466-16.3916-0.5287c-5.5392-1.3591-11.1479-2.5699-16.7115-3.222
	c-6.4667-0.7578-13.0179-1.7058-19.3589-2.6982c-11.7527-1.8394-23.7716-2.2729-35.2968-5.5254
	c-5.27-1.4871-11.0088-0.9692-15.9873-2.4417c-8.236-2.436-16.8634-2.5448-24.9733-5.4316
	c-5.3446-1.9026-11.3778-1.6156-16.5499-4.2482c-1.9052-0.9697-3.7556-1.5045-5.7844-2.0549c-3.21-0.8708-6.7572-1.1135-9.6-2.5735
	c-4.5931-2.3588-9.5663-3.3575-14.2902-5.1681c-5.1567-1.9763-10.5647-3.3099-15.8098-5.0056
	c-7.8196-2.5278-15.7806-4.6206-23.5007-7.3202c-3.9098-1.3671-8.0129-1.8605-11.9111-3.056
	c-4.8862-1.4985-9.1548-5.3154-14.6694-4.668c-5.0193,0.5894-9.4683-1.967-14.3376-2.553
	c-7.4072-0.8914-14.6394-3.431-22.2148-3.4333c-17.7432-0.0056-35.4924-0.5288-53.1777,1.8661
	c-5.9037,0.7994-11.9814,0.5546-17.9714,0.421c-11.7219-0.2617-23.6045,0.46-35.0201-2.5564
	c-3.9896-1.0542-7.9681-1.281-11.8917-2.1428c-7.7261-1.697-15.3091-4.5347-23.1049-5.2683
	c-6.34-0.5967-12.542-2.1152-18.8448-2.822c-4.9592-0.5564-10.2982-0.3301-15.0042-1.8413
	c-7.2455-2.3267-14.745-2.712-22.0557-3.3517c-6.3743-0.5575-12.8132-1.6281-18.8503-2.8647
	c-9.1813-1.8807-18.5249-3.1188-27.7043-5.076c-7.2007-1.5354-14.5035-3.158-21.6405-4.8915
	c-2.9197-0.7091-6.4076-1.5096-9.4918-2.6819c-4.0681-1.546-8.0455-3.8374-12.2793-4.6555
	c-7.7632-1.5001-14.3408-6.0013-21.9524-7.7853c-6.2532-1.4655-11.7582-5.0132-18.0935-6.5595
	c-5.2236-1.2751-10.8286-2.4178-15.412-4.9895c-4.8412-2.7161-10.2408-2.4958-14.9749-4.8157
	c-5.2909-2.593-11.1145-3.5386-16.7064-5.1727c-6.3452-1.8544-12.8254-4.5548-19.2517-4.5677
	c-16.4429-0.0332-32.7872-1.8074-49.1638-2.0276c-15.8508-0.2134-31.7301-1.3396-47.6763,1.4243
	c-9.3245,1.6162-18.3538-3.5712-27.0059-7.1599c-11.4221-4.7375-22.9353-7.5486-35.1111-4.1005
	c-2.8353,0.8031-3.4132,0.0687-4.2096-2.1586c-1.6082-4.4978-3.2695-9.4086-6.9108-12.3158
	c-4.0686-3.2485-3.4468-5.3003-0.2432-8.1398c0.5874-0.5208,1.3883-1.1262,1.043-2.0801c-0.3721-1.0273-1.3877-0.6648-2.1333-0.6688
	c-1.3022-0.007-2.5486-0.0443-3.86,0.5946c-5.6769,2.7661-11.5304,3.1462-17.712,1.5237c-2.1326-0.5598-4.8293-0.5828-6.6401,1.915
	c-1.5232,2.1011-4.3726,1.8669-6.3204,1.5486c-2.9934-0.4893-6.3029-1.5212-5.1221-6.24
	c1.4913-5.9597,0.6359-12.1897,1.3944-18.2079c0.5261-4.1752,0.1688-8.9,2.7209-12.4447c2.7352-3.7991,5.754-7.2661,5.9708-12.214
	c0.0404-0.9227,0.4188-1.8871,1.2594-1.9174c5.6335-0.2024,8.7701-4.8049,13.0669-7.3236
	c6.0142-3.5255,10.9652-7.6796,9.8306-15.9559c-0.5774-4.2128-2.2661-7.8287-3.8414-11.5999
	c-1.3763-3.2952-4.0702-6.9099-1.7675-10.2565c4.0769-5.9253,3.9702-11.9652,2.4897-18.4562
	c-0.3601-1.5793-0.1375-3.2797,0.4839-4.9082c2.5325-6.6383,2.5698-13.6014,2.5116-20.5671
	c-0.0079-0.9393,0.3912-2.1165-1.0194-2.4053c-4.6934-0.9612-3.3521-4.567-2.5406-7.084c0.7253-2.2502,0.7296-4.1399,0.0206-6.177
	c-0.7476-2.1476-2.4463-4.292-2.3264-6.3562c0.5017-8.635-5.2534-15.5613-6.0212-23.78c-0.0813-0.868-0.6403-1.4204-1.1396-2.0981
	c-3.5852-4.8645-5.2394-10.7126-8-16.0029c-0.5708-1.0942,1.7904-6.1948-2.8962-2.0706c-1.4656,1.2896-2.1985-0.7625-2.342-2.0657
	c-0.7556-6.8567-4.6333-12.5956-6.6941-18.9792c-1.4163-4.3875-1.5828-9.7802-8.2208-9.8257
	c-0.2795-0.002-0.6946-0.666-0.8099-1.0867c-1.4384-5.2488-6.132-8.6052-7.8804-13.7097c-0.897-2.6187-1.8469-5.3313-4.1558-7.2156
	c-0.6372-0.5201-1.2371-1.2382-0.3506-2.0643c2.1179-1.974,2.1404-1.9901-1.0679-3.6044
	c-6.8704-3.4564-8.8208-9.8153-9.5801-16.6919c-0.2281-2.0643-0.0762-3.3467-2.792-3.3545
	c-3.2343-0.0092-5.6475-1.8513-6.1101-5.1726c-0.3623-2.6013-1.0918-5.7958,3.073-6.3986c0.9739-0.141,0.6975-0.9484,0.832-1.5256
	c1.2991-5.5809,4.8002-8.5829,10.3745-9.9808c2.094-0.5253,4.6694-0.1116,6.4207-2.0974c2.5544-2.8965,5.7056-4.9807,9.0728-6.9106
	c1.998-1.1453,3.3086-3.5007,2.2683-6.1628c-0.9299-2.3799-2.5217-2.0162-4.8992-1.9236
	c-6.1816,0.2407-11.6685,2.5107-17.4563,4.0046c-2.9285,0.7559-1.9204,4.2622-4.0247,4.0862
	c-5.2334-0.438-7.3403,7.8545-13.3875,4.5464c-2.207,3.229-3.9185,0.9167-4.4883-0.9146c-1.7778-5.7136-7.8054-6.2177-11.303-6.832
	c-6.6202-1.1628-13.1355-2.3514-19.6443-4.2179c-11.4272-3.2769-20.9727-9.6771-30.246-16.6965
	c-0.7604-0.5756-1.3722-1.2485-2.2538-1.7753c-12.4397-7.4336-26.2047-11.1144-40.1785-13.9811
	c-8.1587-1.6737-15.6827-5.8137-24.0593-6.2347c-4.5267-0.2274-9.3208,0.7007-13.4908-1.0879
	c-13.2257-5.6724-24.8252-1.0906-36.3751,4.8784c-7.8345,4.049-13.8087,11.3287-23.1125,12.9543
	c-1.8611,0.3252-2.5025,0.0862-2.8622-1.2888c-1.442-5.5127-5.6163-8.3591-10.2822-10.6943
	c-2.1469-1.0743-3.7875-2.1129-4.2463-4.9061c-0.3077-1.8729-1.6887-4.287-3.2717-5.058c-2.1694-1.0566-4.0467-4.5759-7.2136-2.1394
	c-2.5406,1.9546-5.2098,3.8733-7.284,6.2729c-3.277,3.7913-5.1171,2.7719-6.9208-1.1993
	c-4.266-9.392-11.9702-13.2961-21.9483-13.4636c-1.3136-0.0221-3.0839,0.2295-3.8489-0.4899
	c-2.3096-2.1715-4.3866-1.6199-6.7827-0.3987c-1.706,0.8696-11.0179-1.1168-11.4164-2.4285
	c-1.0458-3.4421-1.9565-6.9125-0.6923-10.5684c1.1688-3.3801,0.6368-6.9205,0.4453-10.3745
	c-0.1248-2.2493-2.0245-3.0201-4.0358-3.5339c-2.7919-0.7133-2.0916,1.9446-2.2925,2.7881
	c-1.3033,5.4705-4.5068,10.0916-6.4869,15.2494c-1.2813,3.337-2.6481,7.3881-5.2925,9.2365
	c-2.4485,1.7114-2.118,2.6287-2.3199,5.0049c-0.2264,2.6636-1.6788,6.469-5.7211,6.1139c-2.1045-0.1849-2.6085,1.4066-2.5128,2.1
	c0.6771,4.9092-4.7134,5.6062-6.0079,9.0544c-2.4613-2.0039-1.8251-5.0482-2.5671-7.6299c-0.0452-0.1572-0.1949-0.292-0.2154-0.4476
	c-1.5403-11.7113-4.5626-23.8031,8.1976-31.8519c0.4415-0.2786,0.9905-1.2319,0.8536-1.4287
	c-0.4755-0.6837-1.2572-0.3062-1.7466,0.0918c-3.8753,3.1514-8.5629,5.7122-9.5313,11.2336
	c-0.9656,5.5062-1.0627,10.9575,0.246,16.5575c1.3206,5.6511,0.9032,11.481-0.5788,17.1935
	c-0.5829,2.2468-2.4346,2.9094-4.0169,3.0518c-2.0976,0.1887-1.104-2.3901-1.5425-2.9178
	c-2.4686-2.9703,0.6231-5.7971-0.2942-8.5555c-0.3228-0.9707,0.6874-2.6682-1.0684-2.7922c-1.2792-0.0903-1.679,1.187-1.9937,2.4238
	c-0.7203,2.8304-2.207,5.4492-1.9916,8.5352c0.106,1.5178-0.6229,3.3992-1.978,3.5938c-5.0039,0.7185-10.0966,2.1934-15.1179,1.0323
	c-8.0495-1.8612-15.1779,0.6864-21.0653,5.3217c-3.8438,3.0264-5.8138,2.3342-9.1726,0.0723
	c-11.2542-7.5793-22.9134-11.0886-34.8459-1.3655c-2.1718,1.7695-3.6096,0.75-5.3347-0.1979
	c-10.3778-5.7025-19.7219-12.7531-27.8178-21.4183c-0.9849-1.0542-2.7262-3.1387-3.0295-2.7263
	c-1.2593,1.7119,1.0603,2.2798,1.8422,3.354c7.2272,9.9297,16.5839,17.304,27.597,22.6024
	c1.8319,0.8813,2.9257,2.1295,1.6788,3.7531c-2.3568,3.0686-3.1125,7.3727-7.2897,9.1219
	c-1.4182,0.5939-2.5387,2.1359-3.5364,3.4421c-1.5839,2.0739-0.3807,4.8688,0.5812,5.9915
	c1.1458,1.3373,2.5673-1.0731,3.4944-2.3114c1.0872-1.4521,2.0105-3.0267,3.0122-4.5433
	c2.4153-3.6569,13.8211-7.3332,17.8403-5.7065c1.28,0.5181,2.541,1.4574,2.5133,2.8505c-0.0396,1.9885-1.9279,1.1752-3.0461,1.4341
	c-1.1249,0.2606-2.3154,0.5276-3.4431,0.4231c-1.98-0.1833-2.3171,1.0552-3.0764,2.4713c-1.1184,2.0858,0.6141,1.8387,1.4263,2.6615
	c2.1523,2.1802,3.1066,4.4734-0.8546,5.9648c-1.3799,0.5195-2.6409,1.3528-4.0186,1.8801
	c-11.02,4.2173-13.6443,11.1851-12.0927,21.7333c0.373,2.5358-0.1088,3.9357-1.8163,5.5199
	c-5.3414,4.9552-9.8919,10.6661-12.9707,17.2048c-1.8697,3.9705-4.4785,5.4459-8.3185,6.974
	c-2.597,1.0336-8.3841-2.2672-8.032,4.4313c0.022,0.4198-2.1381,0.6324-1.1022,1.9928c0.7274,0.9552,1.8461,1.2721,3.1353,0.8075
	c1.5358-0.5535,3.9106-1.1268,4.2122,0.5823c0.2495,1.4143-2.5012,0.3591-3.6852,1.1818c-1.3405,0.9315-4.4524,0.438-3.7706,2.8087
	c0.5293,1.8406,2.8407,0.1963,4.384,0.1464c4.0471-0.1307,8.374-1.6378,12.0559,1.0604c4.5777,3.3549,7.5089,8.1587,10.5889,12.8303
	c1.0607,1.6089,1.3849,2.4563-0.5516,3.3882c-4.4093,2.1216-6.9952,6.1373-9.2043,10.1117
	c-7.546,13.5751-10.0594,28.6388-12.0518,43.7853c-0.182,1.3838-1.1948,3.9531,2.383,3.4321
	c0.2096-0.0305,0.4136-0.0518,0.6139-0.0703c0.8466-0.2988,1.7171-0.531,2.6072-0.7052c0.3794-0.4286,0.5617-1.162,0.4632-2.4568
	c-0.2722-3.578,0.323-7.2969,1.0414-10.8525c0.6111-3.0243,1.5065-6.2565,5.5668-6.6045c4.1071-0.3519,7.8858-2.292,12.1093-2.2908
	c5.0709,0.0015,5.6387,0.9909,3.572,5.8087c-1.928,4.4944-3.5557,9.1411-4.9565,13.8281c-0.6671,2.2322-0.7066,4.9803,2.4157,5.6571
	c1.279,0.2772,3.3132-1.2009,3.7859,0.8187c0.4327,1.8486,1.5073,4.2363-0.9946,5.808c-1.5173,0.9531-2.1814,2.2092-0.317,3.4178
	c4.1854,2.7134,0.4304,3.2354-1.1576,3.5156c-19.2144,3.3911-29.338,30.27-20.5935,47.8313
	c0.9395,1.8867,1.8739,3.9607,3.7963,5.1328c0.7301,0.4451,1.5053,1.7129,2.4894,0.8181c0.723-0.6575-0.1491-1.4648-0.5023-2.1858
	c-1.157-2.3617-2.3463-4.7139-3.3636-7.1365c-1.9064-4.5402-1.3245-5.5139,3.7225-5.4229
	c7.2607,0.1311,14.4507-0.5123,21.5328-1.9272c3.6455-0.7285,4.8043,0.292,4.408,3.8301
	c-0.9299,8.3013,2.336,15.4802,6.3182,22.3894c0.8291,1.4385,1.4107,4.7324,4.3878,1.3887
	c1.0579-1.1882,3.2067-0.4805,3.3914,1.9243c0.2637,3.4321,2.1863,6.0964,3.859,8.9667c3.4951,5.9971,4.6451,12.9296,4.0297,19.5175
	c-0.9561,10.2332-5.6754,19.0234-13.2794,26.3381c-5.9163,5.6909-13.3296,10.0051-17.0969,17.7971
	c-0.338,0.699-0.6979,0.9697-1.0906,1.0039c-0.0584,1.0131-0.2426,2.0161-0.5612,2.9712c3.7664,3.5227,7.716,6.8492,11.7496,10.085
	c0.5982,0.48,1.3846,1.2657,2.1492,0.4534c0.7675-0.8154-0.0368-1.692-0.5997-2.092c-3.7408-2.6584-1.1211-4.0153,1.0951-5.2949
	c1.5558-0.8983,3.309-1.4475,4.9362-2.2312c4.6038-2.2173,10.3644-2.4558,13.9082-6.2885
	c6.4471-6.9727,14.8575-7.9829,23.377-8.9354c1.8272-0.2043,4.3881-0.1716,4.9741,2.3274c0.7195,3.0688,2.9034,5.0663,4.5102,7.5144
	c1.6055,2.446,3.5743,5.2527-0.626,7.4114c-0.4672,0.24-0.7878,1.0093-0.9336,1.5935c-1.9247,7.7109-5.3053,14.5806-11.3542,19.9376
	c-0.4999,0.4427-1.1241,1.047-0.5692,1.6293c1.7791,1.8667,2.9886,3.3645-0.7382,4.4163c-1.1863,0.3348-0.0928,1.1328,0.2982,1.812
	c2.7022,4.6949,1.1922,11.6584-2.8307,14.9667c-2.8685,2.3588-6.2469,4.1322-7.9317,7.8817
	c-8.0905,18.0046-0.9741,34.5562,11.9527,45.3906c7.444,6.239,15.1787,11.9181,21.7891,19.2458
	c4.5236,5.0144,9.0609,10.498,15.2764,13.9183c3.2824,1.806,3.7556,3.9486,0.2039,6.2216
	c-0.7505,0.4802-2.6776,0.9413-1.4871,2.4067c0.7418,0.9131,2.0512-0.1448,2.512-0.8226c2.3268-3.4237,4.913-2.8932,8.1306-1.2545
	c4.9042,2.4976,4.3036-3.1254,6.3303-4.834c2.3664-1.9949,0.4088-2.8315-1.519-3.6566c-1.3217-0.5656-1.8751-1.5826-0.1515-2.8334
	c1.2415-0.9008,2.0445-2.1829,3.685-0.7119c2.1251,1.9058,5.5793,4.2312,4.1,6.8344c-4.8727,8.5751-7.8091,18.0446-12.837,26.5079
	c-0.485,0.8164-1.1392,2.4451-0.9001,2.6273c1.2977,0.9886,1.6302-0.804,2.5157-1.2072c1.5958-0.7267,3.2159-2.3433,4.879-1.6338
	c2.0345,0.8679,1.8587,3.1256,1.8963,5.1821c0.0726,3.9771-0.6831,7.9021-0.2232,11.934c0.2971,2.6045-2.0074,4.1777-4.5129,4.3448
	c-12.1937,0.813-20.0838,8.4644-27.3633,17.0575c-1.4003,1.653-2.6661,3.514-4.5619,4.4749
	c-13.0036,6.59-22.7469,1.2086-35.8479,0.3759c-31.0472-1.9731-57.265,14.1697-80.775,32.5492
	c-7.9545,6.2189-15.8448,11.7894-26.2906,13.9945c-8.719,1.8406-17.7733,2.4048-26.2838,6.1254
	c-4.6156,2.0178-11.0399,1.496-15.2414-2.9032c-6.8436-7.1656-11.4903-16.0481-16.9191-24.2072
	c-5.2303-7.861-7.8925-17.4515-11.5045-26.3547c-0.9831-2.4232-0.7748-5.4423-2.0887-7.5916
	c-1.83-2.9938-4.0222-7.1254-8.1938-6.1212c-3.5914,0.8645-7.3074,3.2854-8.6389,7.1605c-3.3019,9.61-5.0825,19.1947-0.5343,29.2167
	c2.6981,5.9451,4.7835,12.3459,4.5283,19.158c-0.162,4.323,1.0458,8.4702,1.7067,12.6967
	c1.0683,6.8314,4.0917,13.8804-3.1896,19.899c-2.8469,2.3531-2.8917,6.8584-1.7214,11.1521
	c2.1475,7.8795,4.3282,15.5056,8.5243,22.7471c4.2891,7.402,5.0537,16.5978,10.796,23.4908
	c0.5765,0.6921,0.7266,1.8285,0.8578,2.7884c1.1638,8.5177,4.9286,16.2355,7.6479,24.2571
	c0.6979,2.0583,2.2442,4.1966,4.3043,5.8248c5.9573,4.7082,10.2079,10.8902,12.7357,17.9688
	c1.4651,4.1027,4.1101,6.7402,7.1203,9.5628c3.1465,2.9504,6.6357,2.3526,9.5535,1.1599c3.2436-1.3256,4.5801-4.8484,3.3614-8.39
	c-2.3896-6.9445-2.9879-14.1695-3.8846-21.3594c-0.3242-2.6-2.8731-4.8894-1.7302-7.5717
	c2.864-6.7217,5.7005-13.7004,13.7194-15.9292c3.8135-1.0599,6.9584-2.925,9.454-5.9179c2.1245-2.5479,4.9963-3.25,8.0211-2.9727
	c19.6064,1.7978,39.1072,0.4363,58.4971-2.3359c3.0228-0.4323,6.2806-0.7994,9.4401-2.16
	c51.6904-22.2612,114.1371-29.7002,170.0974-28.975c5.7653,0.0747,11.1323-0.3231,16.2608-2.884
	c5.5972-2.7949,11.7559-3.7542,17.7526-4.7514c7.2004-1.1974,13.9667-3.9719,21.1899-5.0529
	c1.2867-0.1925,1.881-0.4999,2.4018,0.0571c3.9155-1.4316,8.5071-1.7341,12.8937-1.895c1.1971-0.3202,2.4327-0.5298,3.7028-0.6218
	c0.0474-0.0479,0.087-0.0994,0.1349-0.1467c1.1953-1.1819,1.742-2.6986,3.6527-2.6466c2.318,0.063,4.3506-0.0818,6.5337-1.4791
	c1.5527-0.9939,4.4085-1.6494,6.1365-0.0587c1.7756,1.6344,0.5214,4.0282,0.2613,6.1196c-0.1644,1.3226-1.5015,2.1241-0.6711,4.0281
	c1.4534,3.3328,1.4583,7.1127,1.4279,10.8013c-0.1002,12.1267-0.2789,24.2337-0.856,36.3656
	c-1.3259,27.8728,6.7119,53.866,18.7114,78.5706c6.3615,13.0972,14.3361,25.424,21.8079,37.9644
	c5.8154,9.7604,11.6693,19.5279,19.7089,27.7348c2.0685,2.1114,4.6232,3.9847,5.3058,7.0693
	c2.5206,11.3906,5.5313,22.7175,7.2193,34.235c1.692,11.5452,4.2374,22.8398,9.1652,33.2676
	c4.7227,9.994,10.5812,19.4976,17.6906,28.1414c1.7057,2.074,2.6157,4.8265,3.317,7.6368
	c3.3552,13.4459,4.7542,27.3645,9.8549,40.3948c1.7325,4.4259,3.9661,8.7776,4.0202,13.6893
	c0.1241,11.2522,3.7899,21.6937,9.7468,30.7499c7.5103,11.4176,9.7321,24.3774,13.0682,36.9668
	c3.3666,12.7045,5.7025,25.6859,10.827,37.8694c1.563,3.7162,2.6847,7.5198,2.6113,11.4628
	c-0.1165,6.2561,2.1182,11.6416,5.5449,16.5486c4.9637,7.1082,8.048,14.5601,7.2915,23.5111
	c-0.9326,11.0359,0.2902,21.8025,6.1276,31.5962c1.9012,3.1904,1.4314,5.8127-0.7399,9.0115
	c-13.9825,20.5991,19.1559,36.2258,2.4174,59.4574c-8.5671,18.8457-17.1342,37.6913-25.7013,56.537
	c-4.7148,10.3713-9.4638,20.8516-15.7079,30.4149c-5.8538,8.9656-14.7108,15.236-20.522,23.9419
	c-4.4087,6.6041-9.338,12.8627-14.0928,19.2333c-5.6977,7.6335-11.5028,15.1711-17.5546,22.5441
	c-6.7542,8.2286-12.7045,17.1174-18.9987,25.7234c-5.0311,6.8792-10.7579,13.3691-14.9017,20.7476
	c-5.2409,9.3323-12.2907,17.4299-17.0821,27.0687c-3.5728,7.1868-8.7705,13.5477-12.6985,20.5815
	c-3.578,6.4066-7.0098,13.1168-11.2129,18.8948c-10.2921,14.1477-18.7839,29.334-27.3299,44.4415
	c-9.5721,16.9211-18.2676,34.3979-26.3333,52.094c-7.7784,17.0654-18.8701,32.3926-25.395,50.075
	c-2.9291,7.9377-7.0197,15.658-7.6919,24.1008c-1.5125,18.9949,2.4064,37.1093,11.6407,53.8262
	c3.051,5.5233,5.5519,11.2562,8.2667,16.912c4.4539,9.2784,8.338,19.0817,17.1527,25.2394
	c9.901,6.9161,21.1989,10.9221,32.7543,14.1749c10.774,3.0328,21.8687,1.3988,32.7964,1.9728
	c5.4968,0,11.0003-0.1758,16.4894,0.0313c20.7967,0.7838,38.8184-6.5623,55.9201-17.7737
	c13.4832-8.8389,26.5783-18.1938,42.9569-22.2206c17.936-4.4098,35.2674-11.2047,52.688-17.5514
	c18.5414-6.7549,36.6212-14.5255,54.8225-22.057c15.994-6.6182,30.8955-15.8086,47.8754-20.1361
	c3.6511-0.9305,6.9524-3.5863,10.6038-4.0969c10.553-1.4762,19.7485-6.9613,30.0072-9.3774
	c9.2434-2.1774,18.2579-5.613,27.0782-9.2163c8.2351-3.3646,17.2249-4.1936,25.1799-8.6323
	c5.6365-3.1449,11.9521-5.6835,18.2678-6.8448c7.8018-1.4349,15.2482-4.0953,23.1301-5.39
	c11.004-1.8073,22.0725-3.4955,32.9504-2.233c16.958,1.9683,34.2244,0.5065,50.9529,5.0953
	c10.2913,2.8234,20.8779,4.4095,29.26,12.004c4.0144,3.637,8.5239,6.8331,13.1565,9.6598
	c8.8741,5.4149,17.5177,11.2164,27.3027,15.104c6.2183,2.4706,11.8933,6.2722,17.9934,9.083
	c9.4602,4.3591,18.9644,8.6647,28.6555,12.4691c10.1926,4.0018,20.4919,7.8438,29.9568,13.2959
	c10.3788,5.9786,19.7778,13.5382,30.0385,19.8082c3.86,2.3588,8.781,3.9877,11.1964,8.5786
	c1.6836,3.1998,3.605,6.2194,5.9875,9.0375c1.9618,2.3199,3.5908,5.0732,6.686,2.8436c2.4985-1.7998,6.24-0.3983,7.9006-3.467
	c2.0646-3.8145,5.3054-6.6993,7.8015-10.1923c5.4087-7.5691,1.4109-22.562-7.552-26.0004
	c-6.2664-2.4037-9.9701-6.8035-11.7844-13.1685c-1.5393-5.4003-4.3704-9.7446-10.0359-11.9264
	c-2.9072-1.1195-5.5927-2.9646-5.9861-6.7047c-0.8987-8.5404-7.8181-13.5121-12.9028-18.9827
	c-3.1246-3.3617-6.3888-6.9751-8.8619-10.5861c-4.8502-7.0818-9.683-13.9836-16.2343-19.5822
	c-2.6732-2.2843-2.0754-5.577-0.948-7.8091c1.0354-2.05,3.6589-0.634,5.7493,0.1312c2.7668,1.0128,5.3235,2.4761,8.3597,3.0057
	c9.7719,1.7048,19.4568,3.5212,29.411,4.4174c13.7124,1.2349,27.4778,2.9136,41.1667,3.2363
	c13.3953,0.3158,25.6902,4.0959,38.4482,6.843c8.0356,1.7302,15.5671,5.588,24.0791,5.5782
	c3.8018-0.0044,7.853,0.417,11.0154,3.7173c3.8457,4.0138,7.8586,7.7488,14.468,4.4647c4.505-2.2384,10.9891-1.49,10.6162-9.3772
	c-0.0688-1.4539,1.5377-3.6606,2.9485-4.3682c2.7874-1.3977,4.7145-3.2023,6.4426-5.7838c0.5171-0.7726,3.0156-0.7135,4.7703-2.0516
	c6.9547-5.3037,8.4717-9.3695,3.9608-16.6927c-2.8782-4.6729-5.223-9.0237-3.9485-14.828c0.6212-2.8291-0.0168-5.958-0.2303-8.9408
	c-0.2788-3.8943-1.6417-6.7751-6.3534-6.4351c-2.0419,0.1476-4.5643-0.1901-5.1649-2.2067
	c-1.698-5.7014-6.3064-7.5615-11.001-9.8019c-2.9082-1.3881-5.701-2.1239-8.5083-0.7965c-2.0553,0.9718-3.053,0.5771-4.6927-0.8234
	c-4.2645-3.6431-8.8247-6.6951-13.8804-9.4639c-6.1554-3.3712-13.3992-5.3943-18.5902-10.746
	c-3.2571-3.358-8.2034-4.2675-11.8408-7.5464c-1.9949-1.7986-4.8481-4.0194-7.8015-4.5256
	c-6.3348-1.0858-10.4666-5.5394-14.9363-9.2804c-4.9299-4.1259-9.2532-8.9646-14.0519-13.3021
	c-7.9045-7.145-16.8402-13.2478-23.0897-22.1406c-5.8394-8.309-11.8591-16.4359-18.2766-24.3625
	c-8.7676-10.8296-19.1172-19.4589-30.7015-26.3781c-8.1704-4.8801-17.6276-8.1559-26.9283-10.4629
	c-13.5708-3.3665-23.9907,3.7242-32.7672,13.1956c-5.3746,5.8002-8.0917,13.3704-11.8928,20.2063
	c-3.1835,5.7252-6.829,6.9885-11.5995,3.1649c-10.7773-8.6379-22.2722-5.5544-33.1018-1.3086
	c-14.8429,5.8192-24.6506,19.5427-40.1328,23.885c-7.6951,2.1582-15.7366,2.7025-23.7107,3.2356
	c-56.8035,3.7976-113.6437,8.6049-170.5042,11.3727c-2.2026,0.1072-16.6074,0.2297-12.35-4.1713
	c6.5404-6.761,14.6288-11.6448,21.5485-17.9324c0.6963-0.6329,1.3835-1.744,2.1213-1.7842c3.76-0.2051,5.7498-3.7209,8.7905-5.2241
	c3.166-1.5649,6.8125-4.4249,10.103-6.7693c6.9941-4.9832,14.1836-9.7881,21.2906-14.6066
	c5.1046-3.4609,10.3684-7.0762,15.0443-11.3594c7.1696-6.5679,17.1053-9.5414,23.2701-17.6194
	c0.7179-0.9409,2.5442-1.8645,3.7765-2.7191c5.6707-3.933,12.48-5.6831,17.9983-9.8352c2.8406-2.1373,5.7764-4.194,8.86-5.9525
	c4.6063-2.6268,9.2839-5.1741,14.1127-7.3528c4.4861-2.0242,6.886-6.564,14.0884-5.3956c10.5623,1.7137,21.1725,3.886,31.8677,5.203
	c6.6406,0.818,12.7128,1.8306,18.735-1.65c0.679-0.3925,1.5092-0.8684,2.2218-0.8015c5.1458,0.4825,6.5602-3.4761,6.6904-6.9026
	c0.4099-10.7867,4.9473-20.5681,8.1196-30.3933c4.7046-14.5704,11.6411-28.5803,20.7115-41.2781
	c6.2413-8.7372,11.0885-18.3389,16.472-27.6108c5.553-9.5634,11.623-18.6128,13.5793-29.9927
	c2.4175-14.0625,6.8477-27.7488,7.3898-42.187c0.2411-6.4242,0.569-12.7618,0.2858-19.2411
	c-1.5234-34.8604-12.8953-65.323-26.6025-97.3889c-5.6014-13.104-11.2174-26.2375-18.1906-38.666
	c-9.6022-17.1146-21.6647-32.6954-33.1132-48.6343c-9.605-13.3727-18.8013-27.0333-27.9957-40.6917
	c-10.673-15.8544-21.3644-31.7393-30.4596-48.5485c-6.4526-11.9254-12.0944-24.3116-16.4092-37.1658
	c-8.7144-25.9609-18.1533-62.7727-13.0171-90.1894c0.2036-1.0869-0.0256-2.3496-0.3696-3.4301
	c-4.0078-12.5887-2.0118-25.365-1.29-38.1064c0.5555-9.8047,0.4645-19.6655-1.5665-29.2396
	c-1.0323-4.8667-1.7208-9.2922-0.059-14.0261c2.2804-6.4956,2.3323-13.1673,2.0923-20.0269
	c-0.2137-6.1082-3.1362-11.3757-3.5698-17.4789c-0.9917-13.9587,0.1146-27.9589-3.8726-41.9362
	c-2.958-10.369-3.6251-21.886,1.4771-32.7276c2.0632-4.384,3.9918-10.1971,1.4321-14.4701
	c-5.4963-9.1749-1.3098-16.7667,2.3123-24.5858c2.9288-6.323,6.4053-12.3918,9.6189-18.5837
	c5.5646-10.7214,12.0406-16.0055,24.2372-16.3665c4.6686-0.1381,9.2899,0.5455,14.0089,1.4221
	c7.4271,1.38,14.9052,2.6378,22.3445,4.1663c11.4241,2.3474,22.9192,4.3943,34.4417,6.2012
	c7.5001,1.176,14.9546,2.5984,22.4194,3.8337c9.5205,1.5758,19.1919,3.6477,28.7263,3.8391
	c15.5525,0.3123,31.0022,2.3928,46.5332,2.1814c19.9166-0.2712,39.7773,0.999,59.6409,1.8931
	c11.8633,0.5341,23.7268,0.33,35.6414,2.0491c13.8127,1.993,28.1702-1.4843,41.9497,2.4457
	c4.4888,1.2803,9.2336,0.9572,13.4253,2.2792c7.7634,2.4485,15.4541,3.7664,23.5695,3.6869
	c7.0803-0.0693,14.1244,0.0118,21.2643,0.9888c11.2798,1.5433,22.8048,0.5765,34.1919,1.9221
	c11.1224,1.3146,22.5186,1.0756,33.4136,3.3463c11.5811,2.4138,23.3066,0.9427,34.8909,3.3533
	c8.917,1.8556,18.3689,0.0776,27.647,1.5454c13.7053,2.1681,27.6821,0.4524,41.5747,2.3624
	c14.6567,2.0151,29.6326-0.7028,44.4993,1.7457c15.4061,2.5377,31.1355,2.4783,46.6974,3.9926
	c11.025,1.0728,22.2225,0.8837,33.3197,0.528c7.9087-0.2534,15.5416,1.5039,23.1984,2.5344
	c3.5763,0.4812,7.6849,1.6062,11.4645,2.9711c5.5454,2.0027,10.2683,5.6111,16.2289,6.9735
	c4.1459,0.9476,8.5865,2.7119,12.3992,4.7432c4.9987,2.6633,10.2291,5.0205,15.4462,6.4351
	c10.4626,2.8372,18.7859,8.701,25.6104,16.3973c8.9563,10.1005,18.9089,19.0644,29.1169,27.744
	c2.646,2.2497,5.5603,4.5425,8.2788,6.7437c5.3357,4.3201,10.0112,9.6185,14.2615,15.058c2.7783,3.5554,5.7986,5.6588,9.9436,4.3236
	c4.0872-1.3164,6.7422-4.4137,6.1348-9.2343c-0.6528-5.1841-1.2883-10.184-4.8906-14.611
	c-3.4136-4.1955-7.3987-7.7731-10.9854-11.7578c-0.9971-1.1078-2.6697-2.3618-2.0239-3.5218
	c0.8564-1.5397,3.3335-1.1006,4.5269-0.503c7.9902,4.0015,16.522,6.5416,24.8975,9.4745c1.9927,0.6978,4.2195,0.8892,6.4727-0.8528
	c3.5425-2.7393,4.5896-6.1766,4.6697-10.303c0.0354-1.8246-0.2385-3.3772,1.7065-5.1071
	C1782.5194,736.8799,1782.9806,729.188,1777.317,721.7567z"/>
</svg>
